<svg data-v-423bf9ae="" xmlns="http://www.w3.org/2000/svg" viewBox="0 0 273 90" class="iconLeft"><!----><!----><!----><g data-v-423bf9ae="" id="1210c831-eba2-484b-93d3-6a18cd9bd627" fill="#2F190E" transform="matrix(5.934717742604922,0,0,5.934717742604922,129.44632929449892,-11.172104339321642)"><path d="M4.24 14.52C6.68 14.52 8.05 13.22 8.05 11.34C8.05 9.66 7.08 8.76 5.08 8.44L4.12 8.29C3.30 8.16 2.95 7.91 2.95 7.24C2.95 6.65 3.42 6.29 4.37 6.29C5.38 6.29 6.01 6.66 6.47 7.21L7.88 5.78C7.08 4.90 5.96 4.41 4.49 4.41C2.20 4.41 0.83 5.63 0.83 7.38C0.83 9.02 1.76 10.02 3.82 10.29L4.79 10.42C5.70 10.54 5.92 10.93 5.92 11.47C5.92 12.18 5.42 12.64 4.38 12.64C3.43 12.64 2.59 12.26 1.93 11.52L0.53 12.94C1.37 13.86 2.53 14.52 4.24 14.52ZM14.08 14.35L14.08 12.66L12.82 12.66L12.82 6.27L14.08 6.27L14.08 4.58L9.44 4.58L9.44 6.27L10.70 6.27L10.70 12.66L9.44 12.66L9.44 14.35ZM24.09 14.35L20.92 4.58L18.28 4.58L15.06 14.35L17.22 14.35L17.92 12.03L21.18 12.03L21.88 14.35ZM20.66 10.22L18.42 10.22L19.50 6.51L19.57 6.51Z"></path></g><defs data-v-423bf9ae=""><linearGradient data-v-423bf9ae="" gradientTransform="rotate(25)" id="9aae7b8b-e228-42f1-b3e3-a91932b12434" x1="0%" y1="0%" x2="100%" y2="0%"><stop data-v-423bf9ae="" offset="0%" style="stop-color: rgb(169, 37, 128); stop-opacity: 1;"></stop><stop data-v-423bf9ae="" offset="100%" style="stop-color: rgb(247, 188, 0); stop-opacity: 1;"></stop></linearGradient></defs><g data-v-423bf9ae="" id="4fdd17d1-2e06-43cd-80f2-fb094a0ad020" transform="matrix(1.4208805535667999,0,0,1.4208805535667999,0.7041340208271691,1.0000018062233806)" stroke="none" fill="url(#9aae7b8b-e228-42f1-b3e3-a91932b12434)"><path d="M0 35.995c0 8.982 17.964 21.957 17.964 23.753v3.593h35.927v-3.793c0-1.596 17.964-14.57 17.964-23.553-3.593-.162-66.067-.162-71.855 0zM71.855 31.443v-3.631H0v3.631h71.855zM63.565 13.776c-3.166 1.385-6.242 2.799-7.349 3.576-.179.475-.36.898-.536 1.312-.191.445-.388.906-.59 1.451l-1.404 3.776-2.562-3.109c-.132-.161-.386-.43-.598-.43a.682.682 0 0 0-.126.014l-1.737.348-.793-1.585a1.018 1.018 0 0 0-.057-.099l-1.921.96-1.046-2.07c-.086-.15-.479-.515-.844-.515-.323 0-.693.322-.885.513L41.936 19.1l-1.496-.748a2.456 2.456 0 0 0-1.056-.243c-.889 0-1.75.538-2.562 1.601l-3.982-2.309c1.604-3.807 5.562-7.721 8.255-8.988 1.887-.889 3.612-1.32 5.273-1.32 2.28 0 4.043.795 5.708 1.646.549-.204 1.318-.539 2.221-.955-1.726-1.678-3.793-2.63-5.861-1.596-1.797-3.593-10.18-6.587-17.365.599-3.593-1.796-13.173-1.796-14.97 7.186-1.796-1.796-5.389-1.796-7.186 1.796-5.389-1.796-7.186 9.58-7.186 9.58h68.263c.001-.001-1.909-7.957-6.427-11.573z"></path><path clip-rule="evenodd" d="M75.622.135C72.22.977 54.956 10.65 51.835 11.224c-2.838-1.463-5.215-2.847-9.751-.712-2.103.99-3.093 2.042-5.018 5.195 2.788-1.834 3.202-.035 4.411.57 2.42-2.419 4.839-.605 5.443.604 1.21-.604 2.42 0 3.024 1.209 1.317-.263 2.291.392 2.97 1.216.494-1.328.926-2.125 1.322-3.314 2.172-2.347 20.719-9.087 23.545-11.247 2.829-2.158 1.242-5.453-2.159-4.61z"></path></g><!----></svg>